<mxfile host="Electron" agent="Mozilla/5.0 (Windows NT 10.0; Win64; x64) AppleWebKit/537.36 (KHTML, like Gecko) draw.io/28.1.2 Chrome/138.0.7204.243 Electron/37.4.0 Safari/537.36" version="28.1.2">
  <diagram name="Página-1" id="xPVqS2t94uJ2PxnfYfk6">
    <mxGraphModel dx="3389" dy="1512" grid="0" gridSize="10" guides="1" tooltips="1" connect="1" arrows="1" fold="1" page="1" pageScale="1" pageWidth="827" pageHeight="1169" math="0" shadow="0">
      <root>
        <mxCell id="0" />
        <mxCell id="1" parent="0" />
        <mxCell id="_024xNBKpECbzJlZSKvo-1" value="Inici" style="ellipse;whiteSpace=wrap;html=1;" parent="1" vertex="1">
          <mxGeometry x="350" y="20" width="120" height="80" as="geometry" />
        </mxCell>
        <mxCell id="_024xNBKpECbzJlZSKvo-2" value="&lt;span id=&quot;docs-internal-guid-76812e7d-7fff-a17a-f9ce-7652c6d1bac5&quot;&gt;&lt;p style=&quot;line-height:1.38;margin-top:0pt;margin-bottom:0pt;&quot; dir=&quot;ltr&quot;&gt;&lt;span style=&quot;font-family: Arial, sans-serif; background-color: transparent; font-variant-numeric: normal; font-variant-east-asian: normal; font-variant-alternates: normal; font-variant-position: normal; font-variant-emoji: normal; vertical-align: baseline; white-space-collapse: preserve;&quot;&gt;&lt;font style=&quot;font-size: 10px;&quot;&gt;Et despertes dins d’una estació espacial &lt;/font&gt;&lt;/span&gt;&lt;span style=&quot;font-size: 10px; background-color: transparent; font-family: Arial, sans-serif; white-space-collapse: preserve; color: light-dark(rgb(0, 0, 0), rgb(255, 255, 255));&quot;&gt; Al teu costat hi ha un vell casc espacial cobert de pols.&lt;/span&gt;&lt;/p&gt;&lt;div&gt;&lt;span style=&quot;font-size: 11pt; font-family: Arial, sans-serif; background-color: transparent; font-variant-numeric: normal; font-variant-east-asian: normal; font-variant-alternates: normal; font-variant-position: normal; font-variant-emoji: normal; vertical-align: baseline; white-space-collapse: preserve;&quot;&gt;&lt;br&gt;&lt;/span&gt;&lt;/div&gt;&lt;/span&gt;" style="rounded=0;whiteSpace=wrap;html=1;" parent="1" vertex="1">
          <mxGeometry x="335" y="130" width="150" height="80" as="geometry" />
        </mxCell>
        <mxCell id="_024xNBKpECbzJlZSKvo-3" value="" style="curved=1;endArrow=classic;html=1;rounded=0;exitX=0.5;exitY=1;exitDx=0;exitDy=0;entryX=0.5;entryY=0;entryDx=0;entryDy=0;" parent="1" source="_024xNBKpECbzJlZSKvo-1" target="_024xNBKpECbzJlZSKvo-2" edge="1">
          <mxGeometry width="50" height="50" relative="1" as="geometry">
            <mxPoint x="400" y="180" as="sourcePoint" />
            <mxPoint x="440" y="130" as="targetPoint" />
            <Array as="points" />
          </mxGeometry>
        </mxCell>
        <mxCell id="_024xNBKpECbzJlZSKvo-4" value="Agafes el casc?" style="rhombus;whiteSpace=wrap;html=1;" parent="1" vertex="1">
          <mxGeometry x="370" y="230" width="80" height="80" as="geometry" />
        </mxCell>
        <mxCell id="_024xNBKpECbzJlZSKvo-6" value="" style="endArrow=classic;html=1;rounded=0;exitX=0.5;exitY=1;exitDx=0;exitDy=0;entryX=0.5;entryY=0;entryDx=0;entryDy=0;" parent="1" source="_024xNBKpECbzJlZSKvo-2" target="_024xNBKpECbzJlZSKvo-4" edge="1">
          <mxGeometry width="50" height="50" relative="1" as="geometry">
            <mxPoint x="390" y="180" as="sourcePoint" />
            <mxPoint x="440" y="130" as="targetPoint" />
          </mxGeometry>
        </mxCell>
        <mxCell id="_024xNBKpECbzJlZSKvo-7" value="" style="endArrow=classic;html=1;rounded=0;exitX=1;exitY=0.5;exitDx=0;exitDy=0;entryX=0;entryY=0.5;entryDx=0;entryDy=0;" parent="1" source="_024xNBKpECbzJlZSKvo-4" target="_024xNBKpECbzJlZSKvo-12" edge="1">
          <mxGeometry width="50" height="50" relative="1" as="geometry">
            <mxPoint x="390" y="380" as="sourcePoint" />
            <mxPoint x="510" y="270" as="targetPoint" />
          </mxGeometry>
        </mxCell>
        <mxCell id="_024xNBKpECbzJlZSKvo-8" value="" style="endArrow=classic;html=1;rounded=0;exitX=0;exitY=0.5;exitDx=0;exitDy=0;entryX=1;entryY=0.5;entryDx=0;entryDy=0;" parent="1" source="_024xNBKpECbzJlZSKvo-4" target="_024xNBKpECbzJlZSKvo-14" edge="1">
          <mxGeometry width="50" height="50" relative="1" as="geometry">
            <mxPoint x="390" y="380" as="sourcePoint" />
            <mxPoint x="300" y="270" as="targetPoint" />
          </mxGeometry>
        </mxCell>
        <mxCell id="_024xNBKpECbzJlZSKvo-9" value="Si" style="text;html=1;align=center;verticalAlign=middle;whiteSpace=wrap;rounded=0;" parent="1" vertex="1">
          <mxGeometry x="450" y="240" width="60" height="30" as="geometry" />
        </mxCell>
        <mxCell id="_024xNBKpECbzJlZSKvo-11" value="No" style="text;html=1;align=center;verticalAlign=middle;whiteSpace=wrap;rounded=0;" parent="1" vertex="1">
          <mxGeometry x="310" y="240" width="60" height="30" as="geometry" />
        </mxCell>
        <mxCell id="_024xNBKpECbzJlZSKvo-12" value="Variable tecasc= true" style="shape=parallelogram;perimeter=parallelogramPerimeter;whiteSpace=wrap;html=1;fixedSize=1;" parent="1" vertex="1">
          <mxGeometry x="500" y="240" width="140" height="60" as="geometry" />
        </mxCell>
        <mxCell id="_024xNBKpECbzJlZSKvo-14" value="Variable tecasc= false" style="shape=parallelogram;perimeter=parallelogramPerimeter;whiteSpace=wrap;html=1;fixedSize=1;" parent="1" vertex="1">
          <mxGeometry x="170" y="240" width="140" height="60" as="geometry" />
        </mxCell>
        <mxCell id="_024xNBKpECbzJlZSKvo-15" value="" style="endArrow=classic;html=1;rounded=0;exitX=0.423;exitY=1;exitDx=0;exitDy=0;exitPerimeter=0;entryX=0.25;entryY=0;entryDx=0;entryDy=0;" parent="1" source="_024xNBKpECbzJlZSKvo-14" target="_024xNBKpECbzJlZSKvo-17" edge="1">
          <mxGeometry width="50" height="50" relative="1" as="geometry">
            <mxPoint x="390" y="380" as="sourcePoint" />
            <mxPoint x="270" y="350" as="targetPoint" />
          </mxGeometry>
        </mxCell>
        <mxCell id="_024xNBKpECbzJlZSKvo-16" value="" style="endArrow=classic;html=1;rounded=0;exitX=0.5;exitY=1;exitDx=0;exitDy=0;entryX=0.75;entryY=0;entryDx=0;entryDy=0;" parent="1" source="_024xNBKpECbzJlZSKvo-12" target="_024xNBKpECbzJlZSKvo-17" edge="1">
          <mxGeometry width="50" height="50" relative="1" as="geometry">
            <mxPoint x="390" y="380" as="sourcePoint" />
            <mxPoint x="550" y="360" as="targetPoint" />
          </mxGeometry>
        </mxCell>
        <mxCell id="_024xNBKpECbzJlZSKvo-17" value="&lt;font style=&quot;font-size: 10px;&quot;&gt;Avances pel passadis i es divideix en dues entrades:&lt;/font&gt;&lt;div&gt;&lt;font style=&quot;font-size: 10px;&quot;&gt;Modul de comandament i Laboratori&lt;/font&gt;&lt;/div&gt;" style="rounded=0;whiteSpace=wrap;html=1;" parent="1" vertex="1">
          <mxGeometry x="345" y="400" width="130" height="70" as="geometry" />
        </mxCell>
        <mxCell id="_024xNBKpECbzJlZSKvo-18" value="" style="endArrow=classic;html=1;rounded=0;exitX=0.5;exitY=1;exitDx=0;exitDy=0;entryX=0.5;entryY=0;entryDx=0;entryDy=0;" parent="1" source="_024xNBKpECbzJlZSKvo-17" target="_024xNBKpECbzJlZSKvo-19" edge="1">
          <mxGeometry width="50" height="50" relative="1" as="geometry">
            <mxPoint x="390" y="680" as="sourcePoint" />
            <mxPoint x="410" y="510" as="targetPoint" />
          </mxGeometry>
        </mxCell>
        <mxCell id="EvJg3zxTudTME1OQd2S0-4" style="edgeStyle=orthogonalEdgeStyle;rounded=0;orthogonalLoop=1;jettySize=auto;html=1;exitX=0;exitY=0.5;exitDx=0;exitDy=0;entryX=0.5;entryY=0;entryDx=0;entryDy=0;" parent="1" source="_024xNBKpECbzJlZSKvo-19" target="EvJg3zxTudTME1OQd2S0-2" edge="1">
          <mxGeometry relative="1" as="geometry">
            <mxPoint x="290" y="540" as="sourcePoint" />
          </mxGeometry>
        </mxCell>
        <mxCell id="EvJg3zxTudTME1OQd2S0-27" style="edgeStyle=orthogonalEdgeStyle;rounded=0;orthogonalLoop=1;jettySize=auto;html=1;exitX=1;exitY=0.5;exitDx=0;exitDy=0;entryX=0.5;entryY=0;entryDx=0;entryDy=0;" parent="1" source="_024xNBKpECbzJlZSKvo-19" target="EvJg3zxTudTME1OQd2S0-22" edge="1">
          <mxGeometry relative="1" as="geometry" />
        </mxCell>
        <mxCell id="_024xNBKpECbzJlZSKvo-19" value="On vas?" style="rhombus;whiteSpace=wrap;html=1;" parent="1" vertex="1">
          <mxGeometry x="370" y="505" width="80" height="80" as="geometry" />
        </mxCell>
        <mxCell id="_024xNBKpECbzJlZSKvo-21" value="Modul de comandament" style="text;html=1;align=center;verticalAlign=middle;whiteSpace=wrap;rounded=0;" parent="1" vertex="1">
          <mxGeometry x="470" y="510" width="60" height="30" as="geometry" />
        </mxCell>
        <mxCell id="EvJg3zxTudTME1OQd2S0-1" value="Laboratori" style="text;html=1;align=center;verticalAlign=middle;resizable=0;points=[];autosize=1;strokeColor=none;fillColor=none;" parent="1" vertex="1">
          <mxGeometry x="280" y="520" width="80" height="30" as="geometry" />
        </mxCell>
        <mxCell id="EvJg3zxTudTME1OQd2S0-6" style="edgeStyle=orthogonalEdgeStyle;rounded=0;orthogonalLoop=1;jettySize=auto;html=1;exitX=0.5;exitY=1;exitDx=0;exitDy=0;entryX=0.5;entryY=0;entryDx=0;entryDy=0;" parent="1" source="EvJg3zxTudTME1OQd2S0-2" target="EvJg3zxTudTME1OQd2S0-5" edge="1">
          <mxGeometry relative="1" as="geometry" />
        </mxCell>
        <mxCell id="EvJg3zxTudTME1OQd2S0-2" value="El laboratori és ple de tubs de criogènesi trencats i al costat hi ha un ordinador central" style="rounded=0;whiteSpace=wrap;html=1;" parent="1" vertex="1">
          <mxGeometry x="-37.43000000000001" y="620" width="130" height="80" as="geometry" />
        </mxCell>
        <mxCell id="EvJg3zxTudTME1OQd2S0-79" style="edgeStyle=orthogonalEdgeStyle;rounded=0;orthogonalLoop=1;jettySize=auto;html=1;exitX=1;exitY=0.5;exitDx=0;exitDy=0;entryX=0.5;entryY=0;entryDx=0;entryDy=0;" parent="1" source="EvJg3zxTudTME1OQd2S0-5" target="EvJg3zxTudTME1OQd2S0-78" edge="1">
          <mxGeometry relative="1" as="geometry" />
        </mxCell>
        <mxCell id="EvJg3zxTudTME1OQd2S0-5" value="Obres un tub o inspeccionas l&#39;ordinador?" style="rhombus;whiteSpace=wrap;html=1;" parent="1" vertex="1">
          <mxGeometry x="-34.93000000000001" y="750" width="125" height="120" as="geometry" />
        </mxCell>
        <mxCell id="EvJg3zxTudTME1OQd2S0-7" value="" style="endArrow=classic;html=1;rounded=0;exitX=0;exitY=1;exitDx=0;exitDy=0;" parent="1" source="EvJg3zxTudTME1OQd2S0-5" target="EvJg3zxTudTME1OQd2S0-8" edge="1">
          <mxGeometry width="50" height="50" relative="1" as="geometry">
            <mxPoint x="42.56999999999999" y="920" as="sourcePoint" />
            <mxPoint x="-47.43000000000001" y="880" as="targetPoint" />
          </mxGeometry>
        </mxCell>
        <mxCell id="EvJg3zxTudTME1OQd2S0-13" style="edgeStyle=orthogonalEdgeStyle;rounded=0;orthogonalLoop=1;jettySize=auto;html=1;exitX=1;exitY=1;exitDx=0;exitDy=0;entryX=0.5;entryY=0;entryDx=0;entryDy=0;" parent="1" source="EvJg3zxTudTME1OQd2S0-8" target="EvJg3zxTudTME1OQd2S0-12" edge="1">
          <mxGeometry relative="1" as="geometry">
            <Array as="points">
              <mxPoint x="-77" y="945" />
              <mxPoint x="-87" y="945" />
              <mxPoint x="-87" y="950" />
              <mxPoint x="13" y="950" />
            </Array>
          </mxGeometry>
        </mxCell>
        <mxCell id="EvJg3zxTudTME1OQd2S0-16" style="edgeStyle=orthogonalEdgeStyle;rounded=0;orthogonalLoop=1;jettySize=auto;html=1;exitX=0;exitY=0.5;exitDx=0;exitDy=0;" parent="1" source="EvJg3zxTudTME1OQd2S0-8" edge="1">
          <mxGeometry relative="1" as="geometry">
            <mxPoint x="-207.43" y="1030" as="targetPoint" />
          </mxGeometry>
        </mxCell>
        <mxCell id="EvJg3zxTudTME1OQd2S0-8" value="Variable tecasc=true?" style="rhombus;whiteSpace=wrap;html=1;" parent="1" vertex="1">
          <mxGeometry x="-150" y="900" width="97.43" height="90" as="geometry" />
        </mxCell>
        <mxCell id="EvJg3zxTudTME1OQd2S0-10" value="Final esperançador" style="ellipse;whiteSpace=wrap;html=1;" parent="1" vertex="1">
          <mxGeometry x="-6.220000000000006" y="1130" width="110" height="70" as="geometry" />
        </mxCell>
        <mxCell id="EvJg3zxTudTME1OQd2S0-11" value="Final Espantós" style="ellipse;whiteSpace=wrap;html=1;" parent="1" vertex="1">
          <mxGeometry x="-300" y="1117.5" width="110" height="70" as="geometry" />
        </mxCell>
        <mxCell id="EvJg3zxTudTME1OQd2S0-12" value="Despertes a un cientific que et guia cap a la sortida" style="rounded=0;whiteSpace=wrap;html=1;" parent="1" vertex="1">
          <mxGeometry x="-47.43000000000001" y="1030" width="120" height="60" as="geometry" />
        </mxCell>
        <mxCell id="EvJg3zxTudTME1OQd2S0-14" value="" style="endArrow=classic;html=1;rounded=0;exitX=0.5;exitY=1;exitDx=0;exitDy=0;entryX=0.5;entryY=0;entryDx=0;entryDy=0;" parent="1" source="EvJg3zxTudTME1OQd2S0-12" target="EvJg3zxTudTME1OQd2S0-10" edge="1">
          <mxGeometry width="50" height="50" relative="1" as="geometry">
            <mxPoint x="-7.430000000000007" y="940" as="sourcePoint" />
            <mxPoint x="42.56999999999999" y="890" as="targetPoint" />
          </mxGeometry>
        </mxCell>
        <mxCell id="EvJg3zxTudTME1OQd2S0-15" value="L&#39;experiment alliberat et devora" style="rounded=0;whiteSpace=wrap;html=1;" parent="1" vertex="1">
          <mxGeometry x="-267.43" y="1030" width="120" height="60" as="geometry" />
        </mxCell>
        <mxCell id="EvJg3zxTudTME1OQd2S0-17" value="" style="endArrow=classic;html=1;rounded=0;exitX=0.5;exitY=1;exitDx=0;exitDy=0;entryX=0.5;entryY=0;entryDx=0;entryDy=0;" parent="1" source="EvJg3zxTudTME1OQd2S0-15" target="EvJg3zxTudTME1OQd2S0-11" edge="1">
          <mxGeometry width="50" height="50" relative="1" as="geometry">
            <mxPoint x="-157.43" y="945" as="sourcePoint" />
            <mxPoint x="-279.99999999999994" y="1130.77" as="targetPoint" />
          </mxGeometry>
        </mxCell>
        <mxCell id="EvJg3zxTudTME1OQd2S0-18" value="Si" style="text;html=1;align=center;verticalAlign=middle;resizable=0;points=[];autosize=1;strokeColor=none;fillColor=none;" parent="1" vertex="1">
          <mxGeometry x="-37.43000000000001" y="920" width="30" height="30" as="geometry" />
        </mxCell>
        <mxCell id="EvJg3zxTudTME1OQd2S0-20" value="No" style="text;html=1;align=center;verticalAlign=middle;resizable=0;points=[];autosize=1;strokeColor=none;fillColor=none;" parent="1" vertex="1">
          <mxGeometry x="-202.43" y="920" width="40" height="30" as="geometry" />
        </mxCell>
        <mxCell id="EvJg3zxTudTME1OQd2S0-21" value="Obrir un tub" style="text;html=1;align=center;verticalAlign=middle;resizable=0;points=[];autosize=1;strokeColor=none;fillColor=none;rotation=-45;" parent="1" vertex="1">
          <mxGeometry x="-97.43" y="860" width="90" height="30" as="geometry" />
        </mxCell>
        <mxCell id="EvJg3zxTudTME1OQd2S0-29" style="edgeStyle=orthogonalEdgeStyle;rounded=0;orthogonalLoop=1;jettySize=auto;html=1;exitX=0.5;exitY=1;exitDx=0;exitDy=0;entryX=0.5;entryY=0;entryDx=0;entryDy=0;" parent="1" source="EvJg3zxTudTME1OQd2S0-22" target="EvJg3zxTudTME1OQd2S0-28" edge="1">
          <mxGeometry relative="1" as="geometry" />
        </mxCell>
        <mxCell id="EvJg3zxTudTME1OQd2S0-22" value="El passadis es bifurca en dues direccions. A l&#39;esquerra, una porta blindada mig oberta. A la dreta, un passadis llarg i fosc." style="rounded=0;whiteSpace=wrap;html=1;" parent="1" vertex="1">
          <mxGeometry x="540" y="620" width="150" height="100" as="geometry" />
        </mxCell>
        <mxCell id="EvJg3zxTudTME1OQd2S0-32" style="edgeStyle=orthogonalEdgeStyle;rounded=0;orthogonalLoop=1;jettySize=auto;html=1;entryX=0.5;entryY=0;entryDx=0;entryDy=0;" parent="1" source="EvJg3zxTudTME1OQd2S0-28" target="EvJg3zxTudTME1OQd2S0-30" edge="1">
          <mxGeometry relative="1" as="geometry">
            <mxPoint x="537.5" y="852.5" as="sourcePoint" />
          </mxGeometry>
        </mxCell>
        <mxCell id="EvJg3zxTudTME1OQd2S0-54" style="edgeStyle=orthogonalEdgeStyle;rounded=0;orthogonalLoop=1;jettySize=auto;html=1;exitX=1;exitY=0.5;exitDx=0;exitDy=0;entryX=0.5;entryY=0;entryDx=0;entryDy=0;" parent="1" source="EvJg3zxTudTME1OQd2S0-28" target="EvJg3zxTudTME1OQd2S0-53" edge="1">
          <mxGeometry relative="1" as="geometry" />
        </mxCell>
        <mxCell id="EvJg3zxTudTME1OQd2S0-28" value="Porta esquerra o passadis dret" style="rhombus;whiteSpace=wrap;html=1;" parent="1" vertex="1">
          <mxGeometry x="560" y="780" width="110" height="120" as="geometry" />
        </mxCell>
        <mxCell id="EvJg3zxTudTME1OQd2S0-35" style="edgeStyle=orthogonalEdgeStyle;rounded=0;orthogonalLoop=1;jettySize=auto;html=1;exitX=0.5;exitY=1;exitDx=0;exitDy=0;entryX=0.5;entryY=0;entryDx=0;entryDy=0;" parent="1" source="EvJg3zxTudTME1OQd2S0-30" target="EvJg3zxTudTME1OQd2S0-34" edge="1">
          <mxGeometry relative="1" as="geometry">
            <Array as="points">
              <mxPoint x="381.21" y="1032.5" />
            </Array>
          </mxGeometry>
        </mxCell>
        <mxCell id="EvJg3zxTudTME1OQd2S0-30" value="A dins de la sala hi ha una consola plena de llums vermelles. Controla tot el oxigen de l&#39;estacio.El panell esta en estat critic, has de decidir rapid." style="rounded=0;whiteSpace=wrap;html=1;" parent="1" vertex="1">
          <mxGeometry x="291.21" y="912.5" width="150" height="120" as="geometry" />
        </mxCell>
        <mxCell id="EvJg3zxTudTME1OQd2S0-33" value="Porta esquerra" style="text;html=1;align=center;verticalAlign=middle;resizable=0;points=[];autosize=1;strokeColor=none;fillColor=none;" parent="1" vertex="1">
          <mxGeometry x="450" y="820" width="100" height="30" as="geometry" />
        </mxCell>
        <mxCell id="EvJg3zxTudTME1OQd2S0-34" value="Reparar la consola o ignorar-la" style="rhombus;whiteSpace=wrap;html=1;" parent="1" vertex="1">
          <mxGeometry x="336.21" y="1072.5" width="90" height="121" as="geometry" />
        </mxCell>
        <mxCell id="EvJg3zxTudTME1OQd2S0-41" style="edgeStyle=orthogonalEdgeStyle;rounded=0;orthogonalLoop=1;jettySize=auto;html=1;exitX=0;exitY=1;exitDx=0;exitDy=0;entryX=0.5;entryY=0;entryDx=0;entryDy=0;" parent="1" source="EvJg3zxTudTME1OQd2S0-36" target="EvJg3zxTudTME1OQd2S0-40" edge="1">
          <mxGeometry relative="1" as="geometry">
            <Array as="points">
              <mxPoint x="231.21" y="1252.5" />
              <mxPoint x="146.21" y="1252.5" />
            </Array>
          </mxGeometry>
        </mxCell>
        <mxCell id="EvJg3zxTudTME1OQd2S0-45" style="edgeStyle=orthogonalEdgeStyle;rounded=0;orthogonalLoop=1;jettySize=auto;html=1;exitX=1;exitY=1;exitDx=0;exitDy=0;entryX=0.5;entryY=0;entryDx=0;entryDy=0;" parent="1" source="EvJg3zxTudTME1OQd2S0-36" target="EvJg3zxTudTME1OQd2S0-44" edge="1">
          <mxGeometry relative="1" as="geometry">
            <Array as="points">
              <mxPoint x="296.21" y="1242.5" />
              <mxPoint x="381.21" y="1242.5" />
              <mxPoint x="381.21" y="1312.5" />
            </Array>
          </mxGeometry>
        </mxCell>
        <mxCell id="EvJg3zxTudTME1OQd2S0-36" value="Variable tecasc=true?" style="rhombus;whiteSpace=wrap;html=1;" parent="1" vertex="1">
          <mxGeometry x="206.21" y="1187.5" width="100" height="100" as="geometry" />
        </mxCell>
        <mxCell id="EvJg3zxTudTME1OQd2S0-37" value="" style="endArrow=classic;html=1;rounded=0;exitX=0.167;exitY=0.711;exitDx=0;exitDy=0;exitPerimeter=0;" parent="1" source="EvJg3zxTudTME1OQd2S0-34" target="EvJg3zxTudTME1OQd2S0-36" edge="1">
          <mxGeometry width="50" height="50" relative="1" as="geometry">
            <mxPoint x="481.21" y="1252.5" as="sourcePoint" />
            <mxPoint x="531.21" y="1202.5" as="targetPoint" />
          </mxGeometry>
        </mxCell>
        <mxCell id="EvJg3zxTudTME1OQd2S0-38" value="Si" style="text;html=1;align=center;verticalAlign=middle;resizable=0;points=[];autosize=1;strokeColor=none;fillColor=none;" parent="1" vertex="1">
          <mxGeometry x="176.21" y="1222.5" width="30" height="30" as="geometry" />
        </mxCell>
        <mxCell id="EvJg3zxTudTME1OQd2S0-39" value="No" style="text;html=1;align=center;verticalAlign=middle;resizable=0;points=[];autosize=1;strokeColor=none;fillColor=none;" parent="1" vertex="1">
          <mxGeometry x="331.21" y="1222.5" width="40" height="30" as="geometry" />
        </mxCell>
        <mxCell id="EvJg3zxTudTME1OQd2S0-43" style="edgeStyle=orthogonalEdgeStyle;rounded=0;orthogonalLoop=1;jettySize=auto;html=1;exitX=0.5;exitY=1;exitDx=0;exitDy=0;entryX=0.5;entryY=0;entryDx=0;entryDy=0;" parent="1" source="EvJg3zxTudTME1OQd2S0-40" target="EvJg3zxTudTME1OQd2S0-42" edge="1">
          <mxGeometry relative="1" as="geometry" />
        </mxCell>
        <mxCell id="EvJg3zxTudTME1OQd2S0-40" value="Aconsegueixes reparar el sistema i restaures l&#39;oxigen." style="rounded=0;whiteSpace=wrap;html=1;" parent="1" vertex="1">
          <mxGeometry x="86.21000000000001" y="1322.5" width="120" height="60" as="geometry" />
        </mxCell>
        <mxCell id="EvJg3zxTudTME1OQd2S0-42" value="Final Heroic" style="ellipse;whiteSpace=wrap;html=1;" parent="1" vertex="1">
          <mxGeometry x="86.21000000000001" y="1422.5" width="120" height="70" as="geometry" />
        </mxCell>
        <mxCell id="EvJg3zxTudTME1OQd2S0-47" style="edgeStyle=orthogonalEdgeStyle;rounded=0;orthogonalLoop=1;jettySize=auto;html=1;exitX=0.5;exitY=1;exitDx=0;exitDy=0;entryX=0.5;entryY=0;entryDx=0;entryDy=0;" parent="1" source="EvJg3zxTudTME1OQd2S0-44" target="EvJg3zxTudTME1OQd2S0-46" edge="1">
          <mxGeometry relative="1" as="geometry" />
        </mxCell>
        <mxCell id="EvJg3zxTudTME1OQd2S0-44" value="Els gasos toxics et deixen sense aire." style="rounded=0;whiteSpace=wrap;html=1;" parent="1" vertex="1">
          <mxGeometry x="321.21" y="1322.5" width="120" height="60" as="geometry" />
        </mxCell>
        <mxCell id="EvJg3zxTudTME1OQd2S0-46" value="Final Horroros" style="ellipse;whiteSpace=wrap;html=1;" parent="1" vertex="1">
          <mxGeometry x="321.21" y="1432.5" width="120" height="70" as="geometry" />
        </mxCell>
        <mxCell id="EvJg3zxTudTME1OQd2S0-48" value="Veus que hi ha una nau que encara funciona, marxes amb el misteri sense resoldre" style="rounded=0;whiteSpace=wrap;html=1;" parent="1" vertex="1">
          <mxGeometry x="450" y="1200" width="130" height="70" as="geometry" />
        </mxCell>
        <mxCell id="EvJg3zxTudTME1OQd2S0-49" value="" style="endArrow=classic;html=1;rounded=0;exitX=1;exitY=1;exitDx=0;exitDy=0;entryX=0.5;entryY=0;entryDx=0;entryDy=0;" parent="1" source="EvJg3zxTudTME1OQd2S0-34" edge="1">
          <mxGeometry width="50" height="50" relative="1" as="geometry">
            <mxPoint x="361.21" y="1132.5" as="sourcePoint" />
            <mxPoint x="486.21" y="1202.5" as="targetPoint" />
          </mxGeometry>
        </mxCell>
        <mxCell id="EvJg3zxTudTME1OQd2S0-50" value="Reparar-la" style="text;html=1;align=center;verticalAlign=middle;resizable=0;points=[];autosize=1;strokeColor=none;fillColor=none;rotation=-40;" parent="1" vertex="1">
          <mxGeometry x="270" y="1157.5" width="80" height="30" as="geometry" />
        </mxCell>
        <mxCell id="EvJg3zxTudTME1OQd2S0-51" value="Final Neutre" style="ellipse;whiteSpace=wrap;html=1;" parent="1" vertex="1">
          <mxGeometry x="475" y="1300" width="110" height="70" as="geometry" />
        </mxCell>
        <mxCell id="EvJg3zxTudTME1OQd2S0-52" value="" style="endArrow=classic;html=1;rounded=0;exitX=0.5;exitY=1;exitDx=0;exitDy=0;entryX=0.5;entryY=0;entryDx=0;entryDy=0;" parent="1" source="EvJg3zxTudTME1OQd2S0-48" target="EvJg3zxTudTME1OQd2S0-51" edge="1">
          <mxGeometry width="50" height="50" relative="1" as="geometry">
            <mxPoint x="410" y="1132.5" as="sourcePoint" />
            <mxPoint x="570" y="1299" as="targetPoint" />
          </mxGeometry>
        </mxCell>
        <mxCell id="EvJg3zxTudTME1OQd2S0-57" style="edgeStyle=orthogonalEdgeStyle;rounded=0;orthogonalLoop=1;jettySize=auto;html=1;exitX=0.5;exitY=1;exitDx=0;exitDy=0;entryX=0.5;entryY=0;entryDx=0;entryDy=0;" parent="1" source="EvJg3zxTudTME1OQd2S0-53" target="EvJg3zxTudTME1OQd2S0-55" edge="1">
          <mxGeometry relative="1" as="geometry" />
        </mxCell>
        <mxCell id="EvJg3zxTudTME1OQd2S0-53" value="El passadis es estret i el terra grinyola sota els teus peus. Da sobte, darrere teu, un so de passades es fa cada vegada mes intens." style="rounded=0;whiteSpace=wrap;html=1;" parent="1" vertex="1">
          <mxGeometry x="780" y="930" width="160" height="90" as="geometry" />
        </mxCell>
        <mxCell id="EvJg3zxTudTME1OQd2S0-71" style="edgeStyle=orthogonalEdgeStyle;rounded=0;orthogonalLoop=1;jettySize=auto;html=1;exitX=0;exitY=0.5;exitDx=0;exitDy=0;entryX=0.5;entryY=0;entryDx=0;entryDy=0;" parent="1" source="EvJg3zxTudTME1OQd2S0-55" target="EvJg3zxTudTME1OQd2S0-59" edge="1">
          <mxGeometry relative="1" as="geometry" />
        </mxCell>
        <mxCell id="EvJg3zxTudTME1OQd2S0-73" style="edgeStyle=orthogonalEdgeStyle;rounded=0;orthogonalLoop=1;jettySize=auto;html=1;exitX=1;exitY=0.5;exitDx=0;exitDy=0;" parent="1" source="EvJg3zxTudTME1OQd2S0-55" edge="1">
          <mxGeometry relative="1" as="geometry">
            <mxPoint x="1050" y="1220" as="targetPoint" />
          </mxGeometry>
        </mxCell>
        <mxCell id="EvJg3zxTudTME1OQd2S0-55" value="Correr o amagar-se" style="rhombus;whiteSpace=wrap;html=1;" parent="1" vertex="1">
          <mxGeometry x="815" y="1063.5" width="90" height="130" as="geometry" />
        </mxCell>
        <mxCell id="EvJg3zxTudTME1OQd2S0-58" value="Passadís dret" style="text;html=1;align=center;verticalAlign=middle;resizable=0;points=[];autosize=1;strokeColor=none;fillColor=none;" parent="1" vertex="1">
          <mxGeometry x="715" y="820" width="100" height="30" as="geometry" />
        </mxCell>
        <mxCell id="EvJg3zxTudTME1OQd2S0-64" style="edgeStyle=orthogonalEdgeStyle;rounded=0;orthogonalLoop=1;jettySize=auto;html=1;exitX=0;exitY=1;exitDx=0;exitDy=0;entryX=0.5;entryY=0;entryDx=0;entryDy=0;" parent="1" source="EvJg3zxTudTME1OQd2S0-59" target="EvJg3zxTudTME1OQd2S0-63" edge="1">
          <mxGeometry relative="1" as="geometry">
            <Array as="points">
              <mxPoint x="752" y="1220" />
              <mxPoint x="690" y="1220" />
              <mxPoint x="690" y="1288" />
            </Array>
          </mxGeometry>
        </mxCell>
        <mxCell id="EvJg3zxTudTME1OQd2S0-68" style="edgeStyle=orthogonalEdgeStyle;rounded=0;orthogonalLoop=1;jettySize=auto;html=1;exitX=1;exitY=0.5;exitDx=0;exitDy=0;entryX=0.5;entryY=0;entryDx=0;entryDy=0;" parent="1" source="EvJg3zxTudTME1OQd2S0-59" target="EvJg3zxTudTME1OQd2S0-67" edge="1">
          <mxGeometry relative="1" as="geometry" />
        </mxCell>
        <mxCell id="EvJg3zxTudTME1OQd2S0-59" value="Variable tecasc=true" style="rhombus;whiteSpace=wrap;html=1;" parent="1" vertex="1">
          <mxGeometry x="727" y="1180" width="100" height="90" as="geometry" />
        </mxCell>
        <mxCell id="EvJg3zxTudTME1OQd2S0-61" value="Si&amp;nbsp;" style="text;html=1;align=center;verticalAlign=middle;resizable=0;points=[];autosize=1;strokeColor=none;fillColor=none;" parent="1" vertex="1">
          <mxGeometry x="660" y="1193.5" width="40" height="30" as="geometry" />
        </mxCell>
        <mxCell id="EvJg3zxTudTME1OQd2S0-62" value="No" style="text;html=1;align=center;verticalAlign=middle;resizable=0;points=[];autosize=1;strokeColor=none;fillColor=none;" parent="1" vertex="1">
          <mxGeometry x="890" y="1200" width="40" height="30" as="geometry" />
        </mxCell>
        <mxCell id="EvJg3zxTudTME1OQd2S0-66" style="edgeStyle=orthogonalEdgeStyle;rounded=0;orthogonalLoop=1;jettySize=auto;html=1;exitX=0.5;exitY=1;exitDx=0;exitDy=0;entryX=0.5;entryY=0;entryDx=0;entryDy=0;" parent="1" source="EvJg3zxTudTME1OQd2S0-63" target="EvJg3zxTudTME1OQd2S0-65" edge="1">
          <mxGeometry relative="1" as="geometry" />
        </mxCell>
        <mxCell id="EvJg3zxTudTME1OQd2S0-63" value="Trobes una capsula d&#39;escapament i l&#39;actives aamb un codi que tenia el casc." style="rounded=0;whiteSpace=wrap;html=1;" parent="1" vertex="1">
          <mxGeometry x="630" y="1287.5" width="120" height="60" as="geometry" />
        </mxCell>
        <mxCell id="EvJg3zxTudTME1OQd2S0-65" value="Final Misterios Segur" style="ellipse;whiteSpace=wrap;html=1;" parent="1" vertex="1">
          <mxGeometry x="640" y="1382.5" width="110" height="70" as="geometry" />
        </mxCell>
        <mxCell id="EvJg3zxTudTME1OQd2S0-70" style="edgeStyle=orthogonalEdgeStyle;rounded=0;orthogonalLoop=1;jettySize=auto;html=1;exitX=0.5;exitY=1;exitDx=0;exitDy=0;entryX=0.5;entryY=0;entryDx=0;entryDy=0;" parent="1" source="EvJg3zxTudTME1OQd2S0-67" target="EvJg3zxTudTME1OQd2S0-69" edge="1">
          <mxGeometry relative="1" as="geometry" />
        </mxCell>
        <mxCell id="EvJg3zxTudTME1OQd2S0-67" value="Trobes una capsula d&#39;escapament pero no s&#39;activa perque et falta un codi que tenia el casc." style="rounded=0;whiteSpace=wrap;html=1;" parent="1" vertex="1">
          <mxGeometry x="827" y="1277.5" width="140" height="80" as="geometry" />
        </mxCell>
        <mxCell id="EvJg3zxTudTME1OQd2S0-69" value="Final desesperançador" style="ellipse;whiteSpace=wrap;html=1;" parent="1" vertex="1">
          <mxGeometry x="842" y="1382.5" width="110" height="70" as="geometry" />
        </mxCell>
        <mxCell id="EvJg3zxTudTME1OQd2S0-72" value="Correr" style="text;html=1;align=center;verticalAlign=middle;resizable=0;points=[];autosize=1;strokeColor=none;fillColor=none;" parent="1" vertex="1">
          <mxGeometry x="727" y="1100" width="60" height="30" as="geometry" />
        </mxCell>
        <mxCell id="EvJg3zxTudTME1OQd2S0-74" value="Amagar-se" style="text;html=1;align=center;verticalAlign=middle;resizable=0;points=[];autosize=1;strokeColor=none;fillColor=none;" parent="1" vertex="1">
          <mxGeometry x="940" y="1100" width="80" height="30" as="geometry" />
        </mxCell>
        <mxCell id="EvJg3zxTudTME1OQd2S0-75" value="Sents els passos d&#39;una &quot;cosa misteriosa&quot;&lt;div&gt;Una criatura alienígena et captura&lt;/div&gt;" style="rounded=0;whiteSpace=wrap;html=1;" parent="1" vertex="1">
          <mxGeometry x="980" y="1217.5" width="130" height="82.5" as="geometry" />
        </mxCell>
        <mxCell id="EvJg3zxTudTME1OQd2S0-76" value="&amp;nbsp;Final Tragic" style="ellipse;whiteSpace=wrap;html=1;" parent="1" vertex="1">
          <mxGeometry x="1020" y="1330" width="110" height="70" as="geometry" />
        </mxCell>
        <mxCell id="EvJg3zxTudTME1OQd2S0-77" value="" style="endArrow=classic;html=1;rounded=0;exitX=0.5;exitY=1;exitDx=0;exitDy=0;entryX=0.5;entryY=0;entryDx=0;entryDy=0;" parent="1" source="EvJg3zxTudTME1OQd2S0-75" target="EvJg3zxTudTME1OQd2S0-76" edge="1">
          <mxGeometry width="50" height="50" relative="1" as="geometry">
            <mxPoint x="1100" y="1240" as="sourcePoint" />
            <mxPoint x="1150" y="1190" as="targetPoint" />
          </mxGeometry>
        </mxCell>
        <mxCell id="EvJg3zxTudTME1OQd2S0-82" style="edgeStyle=orthogonalEdgeStyle;rounded=0;orthogonalLoop=1;jettySize=auto;html=1;exitX=0.5;exitY=1;exitDx=0;exitDy=0;" parent="1" source="EvJg3zxTudTME1OQd2S0-78" target="EvJg3zxTudTME1OQd2S0-81" edge="1">
          <mxGeometry relative="1" as="geometry" />
        </mxCell>
        <mxCell id="EvJg3zxTudTME1OQd2S0-78" value="Descobreixes que hi ha un portal a la següent sala i escapes, pero no saps a on..." style="rounded=0;whiteSpace=wrap;html=1;" parent="1" vertex="1">
          <mxGeometry x="98.86" y="870" width="137.43" height="80" as="geometry" />
        </mxCell>
        <mxCell id="EvJg3zxTudTME1OQd2S0-80" value="Inspeccionar l&#39;ordinador" style="text;html=1;align=center;verticalAlign=middle;resizable=0;points=[];autosize=1;strokeColor=none;fillColor=none;" parent="1" vertex="1">
          <mxGeometry x="92.57" y="780" width="150" height="30" as="geometry" />
        </mxCell>
        <mxCell id="EvJg3zxTudTME1OQd2S0-81" value="Final Fantasiós" style="ellipse;whiteSpace=wrap;html=1;" parent="1" vertex="1">
          <mxGeometry x="112.57" y="993.5" width="110" height="70" as="geometry" />
        </mxCell>
        <mxCell id="EvJg3zxTudTME1OQd2S0-83" value="Ignorar-la" style="text;html=1;align=center;verticalAlign=middle;resizable=0;points=[];autosize=1;strokeColor=none;fillColor=none;rotation=30;" parent="1" vertex="1">
          <mxGeometry x="414" y="1150" width="70" height="30" as="geometry" />
        </mxCell>
        <mxCell id="rnVRJhpqMySTMM6Aze3L-1" value="&lt;h1 style=&quot;margin-top: 0px;&quot;&gt;Miguel Sanchez&lt;/h1&gt;&lt;div&gt;Una historia basada en el videojoc Alien Isolation&lt;/div&gt;" style="text;html=1;whiteSpace=wrap;overflow=hidden;rounded=0;" parent="1" vertex="1">
          <mxGeometry x="-20" y="110" width="180" height="120" as="geometry" />
        </mxCell>
      </root>
    </mxGraphModel>
  </diagram>
</mxfile>
